# xmcd CD database file
#
# Track frame offsets:
#	150
#	24620
#	36155
#	54251
#	73845
#	88771
#	106729
#	124679
#	137661
#	155300
#	180438
#	198980
#	217730
#	235723
#	255336
#
# Disc length: 3767 seconds
#
# Revision: 0
# Processed by: cddbd v1.5.2PL0 Copyright (c) Steve Scherf et al.
# Submitted via: CDex 1.70beta2
#
DISCID=bc0eb50f
DTITLE=Varius Artist - Montecarlo Nights Nouveau Beat 5 CD1
DYEAR=2010
DGENRE=New Age
TTITLE0=Do Tara Alap - La Caina
TTITLE1=Come Together - Tok Tok Tok
TTITLE2=A Grand Love Theme - Kid Loco
TTITLE3=Fallen Hero (Motor City Drum Ensemble Remix) [Ft Ben Onono] - Nufrequency
TTITLE4=Don't Judge A Book By It's Cover (Ft Hannah Colins) - The Hawk
TTITLE5=That's The Way Love Goes (RMC Edit) - Nick The Nightfly
TTITLE6=The Look Of Love - Inlove
TTITLE7=They Don't Want - Electric Wire Hustle
TTITLE8=Beautiful Tango - Hindi Zahra
TTITLE9=I Feel Love - Hector Zazou
TTITLE10=Levar (Ft Jenny Bae) - Hardage
TTITLE11=This Time - Shirley Bassey
TTITLE12=Pousse L'Amour - Tape Five 
TTITLE13=La Ballade Du Mois De Juin - Benjamin Biolay
TTITLE14=Sri Lanka - David D'Or  
EXTD=YEAR: 2010
EXTT0=
EXTT1=
EXTT2=
EXTT3=
EXTT4=
EXTT5=
EXTT6=
EXTT7=
EXTT8=
EXTT9=
EXTT10=
EXTT11=
EXTT12=
EXTT13=
EXTT14=
PLAYORDER=
